<svg id="eE8f1WRwDez1" xmlns="http://www.w3.org/2000/svg" xmlns:xlink="http://www.w3.org/1999/xlink" viewBox="0 0 300 300" shape-rendering="geometricPrecision" text-rendering="geometricPrecision" project-id="af94186dce1049f2b541393ba36393da" export-id="c4cdc78ef6b741368d51a2df18b885a0" cached="true"><rect width="300" height="300" rx="0" ry="0" fill="#fff" stroke-width="0"/><rect width="22.197302" height="25.29531" rx="0" ry="0" transform="matrix(2.252526 0 0 1.976651 38.188976 33.916094)" stroke-width="0"/><rect width="22.197302" height="25.29531" rx="0" ry="0" transform="matrix(2.252526 0 0 1.976651 38.188976 125.000001)" stroke-width="0"/><rect width="22.197302" height="25.29531" rx="0" ry="0" transform="matrix(2.252526 0 0 1.976651 38.188976 211.036951)" stroke-width="0"/><rect width="22.197302" height="25.29531" rx="0" ry="0" transform="matrix(2.252526 0 0 1.976651 118.573864 211.036951)" stroke-width="0"/><rect width="22.197302" height="25.29531" rx="0" ry="0" transform="matrix(2.252526 0 0 1.976651 200.842774 211.036951)" stroke-width="0"/><rect width="22.197302" height="25.29531" rx="0" ry="0" transform="matrix(2.252526 0 0 1.976651 118.573864 125.000001)" stroke-width="0"/><rect width="22.197302" height="25.29531" rx="0" ry="0" transform="matrix(2.252526 0 0 1.976651 118.573864 33.916094)" stroke-width="0"/><rect width="22.197302" height="25.29531" rx="0" ry="0" transform="matrix(2.252526 0 0 1.976651 200.842774 33.916094)" stroke-width="0"/></svg>
