<svg id="eE0Yclof9vt1" xmlns="http://www.w3.org/2000/svg" xmlns:xlink="http://www.w3.org/1999/xlink" viewBox="0 0 300 300" shape-rendering="geometricPrecision" text-rendering="geometricPrecision" project-id="af94186dce1049f2b541393ba36393da" export-id="0b7c4cd4c8b34c7d8a0b37ae94a0fd6c" cached="false"><rect width="300" height="300" rx="0" ry="0" transform="matrix(.878671 0 0 0.886481 18.19935 17.02785)" fill="#fff" stroke-width="0"/><rect width="22.197302" height="25.29531" rx="0" ry="0" transform="matrix(2.252526 0 0 1.976651 44.313711 45.485038)" stroke-width="0"/><rect width="22.197302" height="25.29531" rx="0" ry="0" transform="matrix(2.252526 0 0 1.976651 44.313711 125.000001)" stroke-width="0"/><rect width="22.197302" height="25.29531" rx="0" ry="0" transform="matrix(2.252526 0 0 1.976651 44.313711 202.870639)" stroke-width="0"/><rect width="22.197302" height="25.29531" rx="0" ry="0" transform="matrix(2.252526 0 0 1.976651 118.573864 202.870639)" stroke-width="0"/><rect width="22.197302" height="25.29531" rx="0" ry="0" transform="matrix(2.252526 0 0 1.976651 196.079091 202.870639)" stroke-width="0"/><rect width="22.197302" height="25.29531" rx="0" ry="0" transform="matrix(2.252526 0 0 1.976651 118.573864 125.000001)" stroke-width="0"/><rect width="22.197302" height="25.29531" rx="0" ry="0" transform="matrix(2.252526 0 0 1.976651 118.573864 45.485038)" stroke-width="0"/><rect width="22.197302" height="25.29531" rx="0" ry="0" transform="matrix(2.252526 0 0 1.976651 196.079091 45.485038)" stroke-width="0"/></svg>
